<?xml version="1.0" encoding="UTF-8"?>
<!-- Uploaded to: SVG Find, www.svgrepo.com, Generator: SVG Find Mixer Tools -->
<svg fill="#000000" width="800px" height="800px" version="1.1" viewBox="144 144 512 512" xmlns="http://www.w3.org/2000/svg">
 <path d="m523.38 601.86c-2.4727 0-4.9414-0.75391-7.0547-2.293l-116.33-84.52-116.34 84.52c-4.2227 3.0586-9.8828 3.0586-14.105 0-4.2109-3.0586-5.9609-8.4688-4.3555-13.41l44.441-136.76-116.33-84.52c-4.2109-3.0586-5.9609-8.4688-4.3555-13.41s6.2148-8.2891 11.406-8.2891h143.79l44.441-136.76c1.6133-4.9414 6.2188-8.2891 11.414-8.2891 5.207 0 9.8008 3.3477 11.406 8.2891l44.418 136.76h143.8c5.207 0 9.8008 3.3477 11.406 8.2891s-0.15625 10.352-4.3555 13.41l-116.33 84.52 44.43 136.76c1.6055 4.9414-0.15625 10.352-4.3555 13.41-2.0938 1.5352-4.5625 2.293-7.0352 2.293zm-286.1-234.69 93.516 67.941c4.2109 3.0586 5.9609 8.4688 4.3555 13.41l-35.734 109.94 93.527-67.953c4.2227-3.0586 9.8828-3.0586 14.105 0l93.504 67.953-35.723-109.94c-1.6055-4.9414 0.15625-10.352 4.3555-13.41l93.516-67.941h-115.6c-5.207 0-9.8008-3.3477-11.406-8.2891l-35.695-109.93-35.734 109.94c-1.6055 4.9414-6.2148 8.2891-11.406 8.2891h-115.58z"/>
</svg>